<svg xmlns="http://www.w3.org/2000/svg" version="1.1" xmlns:xlink="http://www.w3.org/1999/xlink" xmlns:svgjs="http://svgjs.dev/svgjs" width="1000" height="563" viewBox="0 0 1000 563"><g transform="matrix(1,0,0,1,-0.6060479794706453,0.6260830695258619)"><svg viewBox="0 0 396 223" data-background-color="#ffffff" preserveAspectRatio="xMidYMid meet" height="563" width="1000" xmlns="http://www.w3.org/2000/svg" xmlns:xlink="http://www.w3.org/1999/xlink"><g id="tight-bounds" transform="matrix(1,0,0,1,0.23999502219237456,-0.24798672203243655)"><svg viewBox="0 0 395.52 223.49597237256285" height="223.49597237256285" width="395.52"><g><svg viewBox="0 0 395.52 223.49597237256285" height="223.49597237256285" width="395.52"><g transform="matrix(1,0,0,1,0,138.1294771399711)"><svg viewBox="0 0 395.52 85.36649523259173" height="85.36649523259173" width="395.52"><g id="textblocktransform"><svg viewBox="0 0 395.52 85.36649523259173" height="85.36649523259173" width="395.52" id="textblock"><g><svg viewBox="0 0 395.52 85.36649523259173" height="85.36649523259173" width="395.52"><g transform="matrix(1,0,0,1,0,0)"><svg width="395.52" viewBox="2.490000009536743 -35.7400016784668 168.97999572753906 36.470001220703125" height="85.36649523259173" data-palette-color="#0063db"><path d="M16.7-12.4L16.7-12.4Q19.34-10.11 22-7.89 24.66-5.66 27.34-3.42L27.34-3.42Q28.52-2.44 29.74-1.37 30.96-0.29 32.32 0.39L32.32 0.39 23.49 0.39Q23.34 0.15 22.56-0.56 21.78-1.27 20.68-2.15 19.58-3.03 18.31-4.05 17.04-5.08 15.87-6.01 14.7-6.93 13.75-7.64 12.79-8.35 12.35-8.69L12.35-8.69 10.6-7.18Q10.6-6.64 10.6-5.54 10.6-4.44 10.64-3.27 10.69-2.1 10.82-1.07 10.94-0.05 11.13 0.29L11.13 0.29 2.49 0.29Q2.69-0.05 2.88-1.27 3.08-2.49 3.22-4.3 3.37-6.1 3.49-8.33 3.61-10.55 3.74-12.89 3.86-15.23 3.93-17.55 4-19.87 4.08-21.85 4.15-23.83 4.17-25.34 4.2-26.86 4.2-27.59L4.2-27.59Q4.2-28.08 4.2-29.32 4.2-30.57 4.1-31.91 4-33.25 3.81-34.38 3.61-35.5 3.27-35.74L3.27-35.74 12.6-35.69Q12.21-35.45 11.91-33.98 11.62-32.52 11.4-30.4 11.18-28.27 11.04-25.76 10.89-23.24 10.82-20.95 10.74-18.65 10.69-16.85 10.64-15.04 10.64-14.36L10.64-14.36Q13.53-16.75 16.48-19.09 19.43-21.44 22.17-24.02L22.17-24.02 30.71-24.02Q29.44-23.34 28.34-22.31 27.25-21.29 26.12-20.41L26.12-20.41Q23.73-18.36 21.39-16.41 19.04-14.45 16.7-12.4ZM60.06-23.78Q59.86-23.44 59.69-22.31 59.52-21.19 59.37-19.65 59.23-18.12 59.13-16.31 59.03-14.5 58.96-12.87 58.88-11.23 58.86-9.94 58.84-8.64 58.84-8.06L58.84-8.06Q58.84-7.57 58.84-6.32 58.84-5.08 58.96-3.76 59.08-2.44 59.3-1.37 59.52-0.29 59.96-0.1L59.96-0.1 51.36-0.15 51.56-2.49Q49.7-1.17 47.51-0.32 45.31 0.54 43.02 0.54L43.02 0.54Q40.72 0.54 38.6-0.02 36.47-0.59 34.86-1.76 33.25-2.93 32.27-4.76 31.3-6.59 31.3-9.18L31.3-9.18Q31.3-12.45 31.61-15.67 31.93-18.9 31.93-22.17L31.93-22.17Q31.93-22.71 31.91-23.24 31.88-23.78 31.78-24.32L31.78-24.32 40.04-24.32Q39.55-23.49 39.3-21.68 39.06-19.87 38.94-17.82 38.82-15.77 38.79-13.84 38.77-11.91 38.77-10.84L38.77-10.84Q38.77-8.98 39.06-7.76 39.35-6.54 40.06-5.81 40.77-5.08 41.99-4.79 43.21-4.49 45.07-4.49L45.07-4.49Q46.09-4.49 47.04-4.86 48-5.22 48.87-5.81 49.75-6.4 50.49-7.13 51.22-7.86 51.8-8.59L51.8-8.59Q51.9-10.74 51.95-12.84 52-14.94 52-17.09L52-17.09Q52-17.53 52-18.53 52-19.53 51.95-20.61 51.9-21.68 51.78-22.58 51.66-23.49 51.46-23.78L51.46-23.78 60.06-23.78ZM84.13-14.4Q84.42-15.23 84.61-16.14 84.81-17.04 84.81-17.97L84.81-17.97Q84.81-20.02 83.71-21.02 82.61-22.02 80.56-22.02L80.56-22.02Q79.39-22.02 77.8-21.75 76.22-21.48 74.8-20.85 73.38-20.21 72.38-19.19 71.38-18.16 71.38-16.65L71.38-16.65Q71.38-15.53 72.48-14.77 73.58-14.01 75.04-13.55 76.51-13.09 78-12.84 79.49-12.6 80.27-12.45L80.27-12.45Q81.49-12.21 83.37-11.84 85.25-11.47 87.01-10.77 88.76-10.06 90.03-9.01 91.3-7.96 91.3-6.35L91.3-6.35Q91.3-4.54 89.89-3.32 88.47-2.1 86.49-1.37 84.52-0.63 82.37-0.32 80.22 0 78.8 0L78.8 0Q75.87 0 72.99-0.42 70.11-0.83 67.33-1.81L67.33-1.81Q66.99-1.95 66.21-2.27 65.42-2.59 64.57-2.95 63.72-3.32 62.98-3.61 62.25-3.91 62.06-3.91L62.06-3.91Q62.15-3.96 62.74-4.49 63.33-5.03 63.98-5.69 64.64-6.35 65.18-6.93 65.72-7.52 65.77-7.67L65.77-7.67Q68.26-5.81 71.31-4.93 74.36-4.05 77.44-4.05L77.44-4.05Q77.78-4.05 78.75-4.13 79.73-4.2 80.78-4.39 81.83-4.59 82.66-4.93 83.49-5.27 83.49-5.81L83.49-5.81Q83.49-6.59 82.12-7.08 80.76-7.57 78.68-8.01 76.61-8.45 74.21-8.98 71.82-9.52 69.75-10.38 67.67-11.23 66.3-12.5 64.94-13.77 64.94-15.77L64.94-15.77Q64.94-18.7 66.52-20.78 68.11-22.85 70.5-24.15 72.9-25.44 75.68-26.03 78.46-26.61 80.9-26.61L80.9-26.61Q82.91-26.61 84.76-26.29 86.62-25.98 88.03-25.15 89.45-24.32 90.3-22.85 91.16-21.39 91.16-19.04L91.16-19.04Q91.16-17.87 90.99-16.7 90.82-15.53 90.57-14.4L90.57-14.4 84.13-14.4ZM114.25-23.44L114.25-23.44Q116.4-23.44 118.3-22.83 120.21-22.22 121.65-21 123.09-19.78 123.92-18.02 124.75-16.26 124.75-13.96L124.75-13.96Q124.75-13.43 124.72-12.3 124.7-11.18 124.7-9.79 124.7-8.4 124.7-6.88 124.7-5.37 124.75-4.05 124.8-2.73 124.89-1.76 124.99-0.78 125.19-0.49L125.19-0.49 116.84-0.49Q117.57-2.59 118.01-5.03 118.45-7.47 118.45-9.72L118.45-9.72Q118.45-11.52 118.08-13.13 117.72-14.75 116.86-15.94 116.01-17.14 114.62-17.82 113.22-18.51 111.17-18.51L111.17-18.51Q109.03-18.51 107.05-17.43 105.07-16.36 103.7-14.75L103.7-14.75Q103.65-13.18 103.65-11.6 103.65-10.01 103.65-8.4L103.65-8.4Q103.65-8.15 103.65-7.42 103.65-6.69 103.65-5.71 103.65-4.74 103.7-3.66 103.75-2.59 103.8-1.66 103.85-0.73 103.95-0.07 104.05 0.59 104.19 0.73L104.19 0.73 95.55 0.73Q95.74 0.49 95.92-0.93 96.09-2.34 96.26-4.32 96.43-6.3 96.57-8.62 96.72-10.94 96.82-13.01 96.92-15.09 96.99-16.65 97.06-18.21 97.11-18.75L97.11-18.75Q97.26-22.56 97.26-26.46L97.26-26.46Q97.26-26.71 97.26-27.42 97.26-28.13 97.23-29.08 97.21-30.03 97.16-31.08 97.11-32.13 97.01-33.03 96.92-33.94 96.75-34.57 96.57-35.21 96.33-35.3L96.33-35.3 105.66-35.21Q105.41-35.21 105.27-34.81 105.12-34.42 105.07-34.28L105.07-34.28Q104.68-33.01 104.56-31.62 104.44-30.22 104.34-28.91L104.34-28.91Q104.14-26.81 104.05-24.73 103.95-22.66 103.85-20.56L103.85-20.56Q106.05-22.12 108.83-22.78 111.61-23.44 114.25-23.44ZM156.63 0.59L147.6 0.59Q148.43 0.34 148.62-0.51 148.82-1.37 148.87-2.05L148.87-2.05Q146.67-1.37 144.42-1.03 142.18-0.68 139.93-0.68L139.93-0.68Q138.47-0.68 136.44-0.93 134.41-1.17 132.58-1.86 130.75-2.54 129.46-3.76 128.16-4.98 128.16-6.98L128.16-6.98Q128.16-8.69 129.41-9.91 130.65-11.13 132.61-11.94 134.56-12.74 137-13.18 139.44-13.62 141.79-13.87 144.13-14.11 146.18-14.16 148.23-14.21 149.4-14.26L149.4-14.26Q149.4-14.94 149.43-15.58 149.45-16.21 149.45-16.89L149.45-16.89Q149.45-18.12 149.01-19.02 148.57-19.92 147.82-20.51 147.06-21.09 146.03-21.36 145.01-21.63 143.89-21.63L143.89-21.63Q142.81-21.63 141.57-21.34 140.32-21.04 139.2-20.46 138.08-19.87 137.25-18.97 136.42-18.07 136.22-16.89L136.22-16.89 130.07-17.72Q130.95-19.97 132.51-21.53 134.07-23.1 136.05-24.07 138.03-25.05 140.27-25.51 142.52-25.98 144.77-25.98L144.77-25.98Q146.91-25.98 148.94-25.44 150.97-24.9 152.55-23.8 154.14-22.71 155.09-21 156.04-19.29 156.04-16.94L156.04-16.94Q156.04-14.45 155.97-11.99 155.9-9.52 155.9-7.03L155.9-7.03Q155.9-6.59 155.9-5.44 155.9-4.3 155.97-3.05 156.04-1.81 156.19-0.76 156.34 0.29 156.63 0.59L156.63 0.59ZM134.8-6.98L134.8-6.98Q134.8-6.25 135.59-5.86 136.37-5.47 137.42-5.25 138.47-5.03 139.49-4.98 140.52-4.93 140.96-4.93L140.96-4.93Q143.01-4.93 145.11-5.22 147.21-5.52 149.16-6.15L149.16-6.15Q149.21-7.03 149.23-7.91 149.26-8.79 149.26-9.62L149.26-9.62 147.99-9.67Q147.55-9.67 146.4-9.64 145.25-9.62 143.79-9.55 142.32-9.47 140.74-9.3 139.15-9.13 137.83-8.84 136.51-8.54 135.66-8.08 134.8-7.62 134.8-6.98ZM161.36 0.44Q161.61 0.05 161.85-1.93 162.1-3.91 162.27-6.67 162.44-9.42 162.59-12.62 162.73-15.82 162.85-18.7 162.98-21.58 163.02-23.78 163.07-25.98 163.07-26.76L163.07-26.76Q163.07-27.2 163.07-28.54 163.07-29.88 163-31.4 162.93-32.91 162.73-34.16 162.54-35.4 162.15-35.64L162.15-35.64 171.47-35.55Q171.23-35.5 171.11-34.96 170.98-34.42 170.93-34.23L170.93-34.23Q170.4-31.79 170.25-29.27 170.1-26.76 169.96-24.27L169.96-24.27Q169.71-20.12 169.59-16.06 169.47-12.01 169.47-7.86L169.47-7.86Q169.47-7.47 169.47-6.23 169.47-4.98 169.52-3.61 169.57-2.25 169.67-1.05 169.76 0.15 170.01 0.44L170.01 0.44 161.36 0.44Z" opacity="1" transform="matrix(1,0,0,1,0,0)" fill="#0063db" class="wordmark-text-0" data-fill-palette-color="primary" id="text-0"></path></svg></g></svg></g></svg></g></svg></g><g transform="matrix(1,0,0,1,138.77175179427908,0)"><svg viewBox="0 0 117.9764964114418 117.97649641144179" height="117.97649641144179" width="117.9764964114418"><g><svg></svg></g><g id="icon-0"><svg viewBox="0 0 117.9764964114418 117.97649641144179" height="117.97649641144179" width="117.9764964114418"><g><path xmlns="http://www.w3.org/2000/svg" d="M35.393 117.977c-19.547 0-35.393-15.846-35.393-35.393v-47.191c0-19.547 15.846-35.393 35.393-35.393h47.191c19.547 0 35.393 15.846 35.392 35.393v47.191c0 19.547-15.846 35.393-35.392 35.392z" fill="#d90000" fill-rule="nonzero" stroke="none" stroke-width="1" stroke-linecap="butt" stroke-linejoin="miter" stroke-miterlimit="10" stroke-dasharray="" stroke-dashoffset="0" font-family="none" font-weight="none" font-size="none" text-anchor="none" style="mix-blend-mode: normal" data-fill-palette-color="accent"></path></g><g transform="matrix(1,0,0,1,31.60180131809524,23.59529928228836)"><svg viewBox="0 0 54.77289377525132 70.78589784686507" height="70.78589784686507" width="54.77289377525132"><g><svg xmlns="http://www.w3.org/2000/svg" xmlns:xlink="http://www.w3.org/1999/xlink" version="1.1" x="0" y="0" viewBox="12.982999801635742 1 75.68599700927734 97.81300354003906" enable-background="new 0 0 100 100" xml:space="preserve" height="70.78589784686507" width="54.77289377525132" class="icon-s-0" data-fill-palette-color="quaternary" id="s-0"><g fill="#ffffff" data-fill-palette-color="quaternary"><polygon fill-rule="evenodd" clip-rule="evenodd" points="12.983,10.59 30.001,98.813 24.129,39.764 53.15,37.872 53.096,27.989    64.549,1 53.622,18.977  " fill="#ffffff" data-fill-palette-color="quaternary"></polygon><polygon fill-rule="evenodd" clip-rule="evenodd" points="59.389,54.548 64.549,1.007 55.809,40.723 36.197,41.768 37.767,62.23    30.001,98.813 42.058,58.914  " fill="#ffffff" data-fill-palette-color="quaternary"></polygon><polygon fill-rule="evenodd" clip-rule="evenodd" points="62.8,67.182 63.349,56.729 47.37,60.484 47.338,72.281 30.001,98.813    51.681,71.197  " fill="#ffffff" data-fill-palette-color="quaternary"></polygon><polygon fill-rule="evenodd" clip-rule="evenodd" points="65.711,62.394 80.552,57.663 82.061,45.131 66.162,47.226  " fill="#ffffff" data-fill-palette-color="quaternary"></polygon><polygon fill-rule="evenodd" clip-rule="evenodd" points="72.07,44.502 83.058,43.085 84.639,32.807 76.56,32.434 64.549,1    72.979,31.967  " fill="#ffffff" data-fill-palette-color="quaternary"></polygon><polygon fill-rule="evenodd" clip-rule="evenodd" points="87.413,31.294 88.669,21.788 79.125,19.094 64.549,1 79.032,23.437    78.61,30.437  " fill="#ffffff" data-fill-palette-color="quaternary"></polygon></g></svg></g></svg></g></svg></g></svg></g><g></g></svg></g><defs></defs></svg><rect width="395.52" height="223.49597237256285" fill="none" stroke="none" visibility="hidden"></rect></g></svg></g></svg>